<svg xmlns="http://www.w3.org/2000/svg" viewBox="0 0 610.05 610.05"><defs><style>.cls-1{fill:#047cb4;}.cls-2{fill:none;}</style></defs><title>InstaQube_1</title><g id="Layer_2" data-name="Layer 2"><g id="Layer_1-2" data-name="Layer 1"><path class="cls-1" d="M305.24,46.84q140.64,0,281.29-.07c7.06,0,13.19,1.3,18.1,6.79,4,4.45,4.71,9.75,4.72,15.34q0,33.81,0,67.64,0,89.29,0,178.58c0,9-2.42,16.76-11.18,20.71a29.53,29.53,0,0,1-11.78,2.55q-225.6.19-451.2,0a22.47,22.47,0,0,0-14.28,4.54c-11.85,8.83-23.86,17.45-35.82,26.14-16.57,12-33.25,23.94-49.68,36.17a26.28,26.28,0,0,1-16.28,5.5c-10.77.13-17.91-9.08-19-18.5a30.43,30.43,0,0,1-.06-3.7Q.05,229.1,0,69.7c0-4.94.77-9.54,3.35-13.76C6.73,50.39,11.8,47.53,18.19,47c2.73-.22,5.49-.16,8.24-.16Zm-.43,25.59H34.66c-9.1,0-9.1,0-9.1,9.14q0,144.15,0,288.3a15.68,15.68,0,0,0,.05,3.29c.3,1.38.59,3.42,1.49,3.83s2.91-.31,4-1.11c9.67-6.94,19.24-14,28.86-21q26.19-19.12,52.42-38.22a28.29,28.29,0,0,1,17.08-5.55q223.76.07,447.51,0c6.41,0,6.42,0,6.42-6.56q0-111.57,0-223.14c0-8.73,1.89-9-8.82-9Z"/><path class="cls-1" d="M218,527.68l12.63,14.77a36.78,36.78,0,0,1-23.91,14.81c-4.26.76-8.67,1.78-12.91,1.44-11-.89-21.67-3.18-30.49-10.45-6.64-5.46-12.82-11.53-19.77-16.55-3.19-2.31-7.68-3-11.68-4-21.93-5.77-37.46-18.71-46.1-39.95a66,66,0,0,1-4.48-33.3c2.2-17.78,10-32.94,24.29-44.36A65.54,65.54,0,0,1,135,396.32c9.61-1.71,19.29-2.73,29.34-.95s19.75,4.46,28.43,9.81a63.91,63.91,0,0,1,28.39,36.31,70.25,70.25,0,0,1,2.68,29.22c-1.85,16.43-8.89,30.57-21.56,41.62a63.4,63.4,0,0,1-21.37,12.61c-3.73,1.27-3.65,2.76-.74,5.44,10.09,9.28,28,7.42,35.61-1.12A13.27,13.27,0,0,1,218,527.68ZM153.32,419.62c-23.79-1.32-43,18.19-43,42.45,0,25.17,17.92,43.44,42.73,43.3,25.7-.14,41.79-19.28,42.11-42.61C195.47,438.52,177.39,419.2,153.32,419.62Z"/><path class="cls-1" d="M376.89,457.48c0-21.44.1-42.89-.08-64.34,0-4.08,1-5.66,5.3-5.38a144.37,144.37,0,0,0,16.9,0c3.91-.21,5.28,1,5.21,5-.23,12.78-.13,25.57,0,38.36,0,1.63.82,3.25,1.27,4.88a36.81,36.81,0,0,0,4.12-2.06,46.77,46.77,0,0,1,35.12-7.31c11.37,1.94,20.8,6.54,28.35,15,8.84,9.89,12.56,21.58,12.76,34.9.26,16.67-5.23,30.55-17.76,41.43a39.73,39.73,0,0,1-21.76,9.7c-3.65.41-7.3,1.43-10.93,1.32-10.61-.29-20.58-2.68-28.61-10.33a10.43,10.43,0,0,0-2.8-1.37,11.05,11.05,0,0,0-1.36,3.12c-.63,7.05-.58,7.06-7.65,7.06-4.4,0-8.81-.24-13.19.07-3.86.28-5-1.17-4.93-4.91C377,500.93,376.9,479.21,376.89,457.48Zm26.57,19.85c.67,3,1.33,6.05,2,9.08,2,9,7.47,15.22,15.94,18.3,9.85,3.58,19.59,2.48,27.17-5,8.11-8,10.46-17.9,8.12-29.55-3.67-18.33-20.75-25.5-36.21-19.89C412.08,453.27,403.53,465,403.46,477.33Z"/><path class="cls-1" d="M529.24,485.66c.26,7.31,4.36,12,9.59,15.2,13.53,8.22,27.44,7.78,40.79-.51,3.76-2.34,5.84-2.06,8.41,1.2a78.75,78.75,0,0,0,7.81,8.42c2.26,2.13,1.94,3.63,0,5.8-4.66,5.2-10.61,8.15-17.09,10.06-8.15,2.39-16.54,4-25.06,3.21-20.08-1.9-37.68-8.49-47.67-27.71-4.88-9.38-7.37-19.65-5.64-30,3.34-20.08,14-37.36,38.73-43.7,15-3.85,29.69-2.2,43.23,5.52,17.73,10.12,25.35,30.24,23.34,49.38-.32,3-2.24,2.9-4.4,2.9q-33.18,0-66.37,0C533.17,485.39,531.43,485.55,529.24,485.66Zm-.75-16.59c1.77.16,3.09.37,4.41.37q21,0,42.08,0c1,0,2.13.22,2.82-.24s1.86-1.88,1.68-2.56c-4.87-17.69-18.12-23.15-34.21-19.06C535.1,450.18,530.05,458.06,528.49,469.07Z"/><path class="cls-1" d="M347.74,477.62c0,15.11-.12,30.23.08,45.34.05,3.71-1.13,4.77-4.7,4.6-5.76-.27-11.55-.2-17.31,0-3,.1-4.19-.89-4.12-4,0-2-.69-4.12-1.07-6.18-1.79,1-3.51,2.19-5.37,3-5.39,2.48-10.69,5.31-16.32,7.06A44.7,44.7,0,0,1,285.61,529c-16.74-.1-30.68-9.47-36.46-25-1.8-4.85-2.28-10.39-2.35-15.63-.27-18.82,0-37.65-.19-56.48,0-3.66,1.15-4.79,4.74-4.64,6.17.25,12.37.23,18.54,0,3.37-.12,4.51.92,4.48,4.4-.14,17.59-.48,35.2.15,52.76.34,9.49,4,17.53,13.38,20,15.2,4,29.77-3.12,31-19.67s.94-33.43,1.24-50.15c.15-8.22-.67-7.21,7.34-7.26,5.22,0,10.45.19,15.66-.08,3.56-.18,4.76.89,4.71,4.6C347.62,447.11,347.74,462.37,347.74,477.62Z"/><path class="cls-1" d="M447.16,160.31c6.94-2.91,13.22-6.57,20-8.13,8.94-2.06,18.31-3.69,27.39-3.3,12.72.56,25.55,3.28,34.17,14a44.61,44.61,0,0,1,7.93,16.32c3.84,14.65,1.09,29.74,1.69,44.63.31,7.82,0,15.67.1,23.5.05,2.86-.91,3.88-3.8,3.8-6-.18-12.1-.13-18.14,0-2.49.05-3.47-.92-3.47-3.37,0-2.67-.28-5.34-.5-9-1.81,1.3-2.92,1.82-3.65,2.66-9.69,11.18-22.4,11.57-35.71,10.27a34.64,34.64,0,0,1-18.08-6.7c-6.77-5.13-10.57-11.57-11.28-20.33-1.33-16.46,8.86-25.49,21.31-29.24,11.34-3.43,22.9-3,34.48-3,1.51,0,3,0,4.53,0,8.06.13,7.1-.31,5.42-7.53-1.59-6.88-7.15-10.29-13.74-12.08-13.5-3.67-25.53.41-37.14,6.86a10.43,10.43,0,0,1-1.58.47ZM496,208.58v-.25c-4.66.22-9.34.21-14,.72-6.21.68-10.37,4.68-10.91,9.94-.67,6.62,1.68,10.94,8.23,12.81A35.46,35.46,0,0,0,492.66,233c9.13-1,19.74-7.94,18.2-20.65-.3-2.56-1.24-3.79-3.75-3.81C503.41,208.57,499.7,208.58,496,208.58Z"/><path class="cls-1" d="M137.64,200.59c0-15.25.09-30.51-.07-45.76,0-3.62,1.1-4.85,4.73-4.68,5.62.27,11.27.21,16.9,0,3-.1,4.18,1,4.15,4,0,2.07.68,4.16,1.06,6.24,1.84-.95,3.76-1.75,5.49-2.85a62.78,62.78,0,0,1,19.52-7.86c10.52-2.5,20.08-.41,29.36,3.75,11,5,17.47,14,19.34,25.85,3.58,22.77.69,45.74,1.6,68.6.11,2.7-1.28,3.17-3.57,3.14-6.6-.08-13.2-.19-19.79,0-3.34.13-4.27-1.1-4.25-4.27.11-15.94.24-31.89-.07-47.82a46.05,46.05,0,0,0-2.51-14.81c-2.81-7.67-9.16-11-17.22-11.51-10.3-.59-18.9,2.52-23.46,12.19a41,41,0,0,0-3.8,15.66c-.5,14.83-.17,29.68-.17,44.53,0,6,0,6-6.16,6-5.63,0-11.28-.18-16.9.07-3.39.15-4.24-1.22-4.22-4.32C137.69,231.38,137.64,216,137.64,200.59Z"/><path class="cls-1" d="M268.17,222.91c5.67,2.22,10.83,4.67,16.24,6.3,9.82,2.95,19.92,4,29.95,1.28,6.82-1.84,8.14-4.08,7.65-10.09-.28-3.36-4.15-6.2-9.34-7.14-10.35-1.89-20.73-3.6-31-5.93-8.38-1.91-15.2-6.89-18.55-14.8-5.58-13.2-.41-28.09,11.82-35.55a47.07,47.07,0,0,1,21.13-7c4.74-.35,9.5-1.52,14.19-1.26,10.73.6,21.29,2.42,31.34,6.53,3.11,1.27,3.77,3.47,2.46,6.28-2.37,5.07-4.91,10.07-7.52,15.37-3.83-1.58-7.59-3.39-11.52-4.71-9.92-3.34-20.1-4.41-30.09-.79-2.65,1-5.26,4.09-6.26,6.82-.7,1.92.62,5.85,2.34,7.11,2.86,2.1,6.67,3.22,10.25,4,6.43,1.32,13.06,1.69,19.46,3.12,9.59,2.13,19.1,4.73,25,13.74,6.05,9.25,5.11,24-3.35,32.48-7.57,7.61-16.79,12.15-27.62,12.47-9.67.28-19.48.9-29-.31-7.93-1-15.57-4.38-23.28-6.91-2.47-.81-3.15-2.65-1.83-5.24C263.27,233.44,265.68,228.14,268.17,222.91Z"/><path class="cls-1" d="M425.44,226.76c2.18,5.79,4.5,11.45,6.31,17.27.31,1-1.24,3.28-2.48,4-7.82,4.36-16.46,4.82-25.08,4-9.12-.85-18.05-3.23-23.85-11a38,38,0,0,1-6.42-13.89c-3.55-15.55-.95-31.42-1.6-47.15-.24-5.7-.05-5.71-5.53-5.72-10.22,0-10.22,0-10.22-10.47a70.09,70.09,0,0,1,.14-9.06,4.2,4.2,0,0,1,2.84-2.77,39.51,39.51,0,0,1,8.63-.09c3.42.29,4.25-1.26,4.15-4.35-.18-5.22,0-10.45-.08-15.67-.05-2.45.86-3.51,3.34-3.49,7.15.06,14.3.07,21.45,0,2.63,0,3.69,1,3.62,3.66-.12,5.22.11,10.45-.07,15.67-.12,3.27,1.17,4.31,4.35,4.2,5.63-.2,11.28.06,16.91-.1,2.89-.09,3.93,1,3.87,3.84q-.18,7.43,0,14.85c.06,2.8-1,3.92-3.87,3.84-5.91-.17-11.83,0-17.73-.08-2.46-.05-3.5.88-3.49,3.34.05,13.61-.08,27.22.09,40.83.1,8.74,10.19,12.94,16.85,11.06C420,228.81,422.42,227.83,425.44,226.76Z"/><path class="cls-1" d="M105.47,185.18c0,20.33-.07,40.66.07,61,0,3.67-.91,5.14-4.86,4.94-6.58-.32-13.19-.21-19.78,0-3,.08-4.12-.76-4.12-3.92q.12-62.22,0-124.45c0-3.2,1.23-3.95,4.15-3.87,6.73.16,13.47.24,20.19,0,3.59-.14,4.42,1.28,4.4,4.55C105.42,144,105.47,164.57,105.47,185.18Z"/><rect class="cls-2" width="610.05" height="610.05"/></g></g></svg>