<svg xmlns="http://www.w3.org/2000/svg" viewBox="0 0 474.82 462.68"><defs><style>.cls-1{fill:#fff;}</style></defs><title>QubeLogo</title><g id="Layer_2" data-name="Layer 2"><g id="Layer_1-2" data-name="Layer 1"><path class="cls-1" d="M237.57,462.65h-224a37.21,37.21,0,0,1-6-.22c-5.2-.85-7.51-3.59-7.51-8.78Q.08,231.4,0,9.16C0,3.87,2.57,1.55,7.08.55A30.22,30.22,0,0,1,13.53,0q224,0,448,0a34.35,34.35,0,0,1,6.95.59c4.2.87,6.35,3.1,6.35,8q-.18,222.75,0,445.48c0,5.49-2.87,7.36-7.28,8.36a27.64,27.64,0,0,1-6,.23ZM14.05,16.83V23q0,208.47-.12,417c0,5.13,1.35,6.35,6.37,6.35q217.22-.21,434.45-.11h5.74V16.83Z"/><path class="cls-1" d="M183.79,281.56c25.29-23.61,68-17.05,88.35,5.13,22.4,24.42,23.8,67.75,2.48,93.59a61.72,61.72,0,0,1-28,19.28,71.67,71.67,0,0,1-33.52,3.09c-11.72-1.59-21.8-6.54-31-15.91v14H145V182.8c-.75-.06-1.18-.23-1.35-.09-37.49,30.75-94.4,9.46-102.94-38.5-3.24-18.24-2-36,7.4-52.3C61.88,68,83.77,59.2,110.45,60.33c13.63.58,25.63,5.15,36.15,16.13V61.9h24.48c12.71,0,12.71,0,12.71,12.81V281.56ZM78.42,128.41c-.27,9.73,2.24,19,9.52,26.51,9.84,10.09,22,12.18,35,8.29S142.76,149.77,145,136.8c3.21-18.87-3.56-34.73-17.51-41.43C106.12,85.13,78.05,97.53,78.42,128.41ZM183,334.82c.48,3.62.7,7.3,1.48,10.86,5.31,24.18,34.46,34.27,53.6,18.49,10.31-8.49,13-20.13,12.35-32.82-1.33-24.76-24.17-39.53-46.92-30.46C191,305.9,183.34,318.68,183,334.82Z"/><path class="cls-1" d="M341.19,345.9c3.1,26,45.91,37.08,70.6,13.7l21,23c-6.47,4.53-11.91,9.76-18.39,12.64-28.55,12.7-57,11.69-83.64-4.79C309,377,300.21,355.85,301.64,330.7c1.5-26.36,14.4-45.78,38.23-57.15,27.29-13,61.59-8.06,81.65,11.56,16.13,15.78,21.57,35.48,19.21,57.54-.13,1.2-2.41,3-3.76,3.09-7,.32-14,.16-21,.16h-74.8Zm-.63-23.27h63.83c-2-16.08-16.22-27.42-33-26.8C354.85,296.44,341.52,307.94,340.56,322.63Z"/><path class="cls-1" d="M196.87,62.25H235.7V68q0,31.24,0,62.48a63.54,63.54,0,0,0,.51,9.46c3.09,19.92,20.8,29.26,39.24,20.73,12.92-6,17-17.26,17.17-30.31.28-20.82.07-41.65.07-62.47V61.92c12.34,0,24.12-.06,35.9.11.94,0,2,1.55,2.71,2.59.38.59.09,1.63.09,2.46q0,61.47,0,123c0,1.31-.13,2.62-.22,4.27h-36.4V179.46C286.71,187.72,278.14,193,268,195c-19.25,3.75-37.54,1.93-53.29-11.13-10.93-9.06-15.83-21.41-16.82-35.07s-.83-27.28-1-40.93C196.77,92.89,196.87,77.91,196.87,62.25Z"/><path class="cls-1" d="M76,323.92c-5.6-8.57-6.9-16.6-3.46-25.16,2.86-7.13,8.59-10.78,15.83-11.12,10.79-.5,21.61-.13,33.29-.13a106.32,106.32,0,0,1-.18,11.89c-.11.92-2.53,2.19-3.93,2.24-7.15.22-14.31.06-21.47.12-8.68.06-12.91,3.53-12.9,10.45,0,7.26,4.85,11.6,13.24,11.69,7.16.09,14.33.11,21.48,0,2.74-.05,3.9.82,3.85,3.69-.23,13.68,1.54,10.93-10.48,11.05-17.82.17-35.64-.07-53.45.13-4.23.05-5.94-.92-5.75-5.51.45-10.91-1.25-9.16,9.28-9.31C66,323.87,70.6,323.92,76,323.92Z"/><path class="cls-1" d="M100.72,224.92V262c10.55-2.11,13.07-14,5.73-26.71l8-7.56a61.22,61.22,0,0,1,4.72,6.44c7.33,13.31,2.44,33.19-9.7,39.88-10,5.54-22.57,4.1-30.63-3.51-8.29-7.83-10.61-21.45-5.51-32.36C78,228.34,87.74,223.43,100.72,224.92ZM91.86,238.7c-6.78,1.18-10.15,5.43-10.08,11.94s3.6,10.58,10.08,11.53Z"/><path class="cls-1" d="M60.73,363.51H72.48v-12H83.86a45.76,45.76,0,0,1,0,6.12c-.7,5,1.48,6.38,6.16,6,4.13-.37,8.31-.06,12.47-.09,7.49-.05,9.54-2.72,7.71-10-.15-.62-.24-1.26-.32-1.73.25-.32.33-.51.46-.57,9.7-4.38,10.95-5.82,12.12,6.9s-6,20.09-18.88,20.19c-6.29.05-12.59,0-19.22,0-.27,2.48-.5,4.56-.77,7.05H73l-.64-6.72-11.58-.57Z"/></g></g></svg>