<svg xmlns="http://www.w3.org/2000/svg" viewBox="0 0 610.05 610.05"><defs><style>.cls-1{fill:#5880c0;}.cls-2{fill:#dbdcdc;}.cls-3{fill:#e6e7e7;}.cls-4{fill:#999a9b;}.cls-5{fill:#fefefe;}.cls-6{fill:#3d67a0;}.cls-7{fill:#e4e5e5;}.cls-8{fill:#5881c0;}.cls-9{fill:none;}</style></defs><title>QTranslate</title><g id="Layer_2" data-name="Layer 2"><g id="Layer_1-2" data-name="Layer 1"><path class="cls-1" d="M572.12,52h1.23c12,.88,21.42,6.44,29.15,15.47,4.69,5.48,6.63,11.89,7.55,18.79V408.05c-4.42,22.63-19.44,34.93-43,34.94q-110.94.06-221.89,0c-10.93,0-10.93,0-10.93,11.13q0,50.12,0,100.24c0,3.24.4,6.55-1.12,9.62a1.77,1.77,0,0,1-2,.86,4.67,4.67,0,0,1-1.29-2c-.82-3.2-.67-6.46-.67-9.72q0-50.08,0-100.18c0-9.9,0-9.92-9.68-9.92q-43.38,0-86.75,0c-3.24,0-6.53.3-9.66-1-1.55-.77-1.91-2.17-1.94-3.74,3.78-17.1,9.35-33.73,14-50.62,5.9-21.62,12-43.2,18.39-64.66,9.08-33.64,18.92-67.07,28.27-100.63,4.1-14.72,8.55-29.34,12.44-44.13.27-1.29.84-2.49,1.12-3.78,10.83-37.85,21.43-75.77,32.29-113.61.89-3.07.68-7.16,5.05-8.25q116.78,0,233.52,0C568.14,52.65,570.23,53.18,572.12,52Z"/><path class="cls-2" d="M2,530.43q0-57.52,0-115c0-.4,0-.8,0-1.2,7.52-8,16.61-14.19,25-21.21,7.61-6.38,15.2-12.8,23.23-18.63,3.48-2.52,4.82-6.26,7.22-9.38,2.53.89,2.22,3.15,2.36,5.11,2.23,31,17.66,53.87,43.43,70.32,10.27,6.56,21.68,10.24,33.52,12.59A25.74,25.74,0,0,1,150,460c8.11,7.69,16.16,15.58,25.72,21.48,25.7,15.84,52.08,18.48,79.14,3.27a12.59,12.59,0,0,1,3.32-1.5c2.84-.25,4.37,1.72,6,3.55,19.2,21.68,38.28,43.48,57.81,64.89,3.38,3.71,7,7.36,9.15,12.05a3,3,0,0,0,0,.95H38.71C20.66,564.08,3.38,548,2,530.43Z"/><path class="cls-3" d="M57.13,365.14c.48,4-1.24,6.46-4.47,9-16.11,12.78-31.92,25.95-47.87,38.93A9.7,9.7,0,0,1,2,414.18L2,211.07c1.22-16.14,17.72-32.48,33.91-34.34a246.61,246.61,0,0,1,28-1.1l232.74-.08c-.33.83-.67,1.67-1,2.5-8.87,9.6-19.85,16.71-29.83,25-25.9,21.57-52.4,42.41-78.45,63.82a6.88,6.88,0,0,1-2.65,1.45c-9.33-.39-18.54-2-28-1.87-26.81.4-50.53,8.94-70,27.27C71.61,308,62.94,326,59.88,346.68,59,352.83,60,359.28,57.13,365.14Z"/><path class="cls-4" d="M57.13,365.14c-.25-25,6.29-47.64,23.11-66.85,16-18.27,36.38-28.11,59.9-32.12,15.18-2.58,30.32-1.46,45.4,1.09,3.15-.95,6,.33,8.87,1.27q42.61,14,60.61,55.08-15.75,55.33-31.47,110.67c-.33,1.17-.26,2.45-1.45,3.2-3.77,6.53-11,7.83-16.87,11.29a27.84,27.84,0,0,1-7.44,2.88c7.73,8.44,16.77,11.82,27.73,10.31,3.85-.53,7.44-2,11.13-3.06a4.45,4.45,0,0,1,3.79,1.58c6.19,6.92,12.85,13.44,18.25,21a2.5,2.5,0,0,1,.31,2.3c-27,18.36-64.46,16.05-90.71-5.58-7.53-6.2-15.11-12.36-21.73-19.53-2.81-3-6.38-3.33-9.86-4-34.94-7.24-60.23-26.29-73.42-60-3-7.74-5.13-15.81-5.13-24.27C58.15,368.59,58.57,366.66,57.13,365.14Z"/><path class="cls-5" d="M472.14,251.82c.14,19.91-3.39,38.91-14.54,55.85-28.12,42.74-93.64,41.55-118.66-3.08-18.53-33-18.33-68.25-2.33-102.14,13.22-28,37.7-39.71,68.16-37.7,28.72,1.89,48.42,17.26,59.74,43.51C470.5,222.16,472.32,236.83,472.14,251.82Z"/><path class="cls-5" d="M556,251.4c0,26.67-.11,53.35.11,80,0,4.58-1.19,5.94-5.79,5.77-9.56-.36-19.15-.39-28.71,0-4.8.2-5.65-1.55-5.64-5.92.16-42.15-.07-84.31.27-126.46,0-6.43-1.84-8-7.82-7.54-7.29.51-14.66,0-22,.18-3.3.08-4.8-.75-4.7-4.39.23-7.74.2-15.48,0-23.22-.08-3.31,1.25-4.1,4.31-4.09,21.79.09,43.58.19,65.36-.06,4.74-.05,4.62,2.34,4.62,5.65Q556,211.38,556,251.4Z"/><path class="cls-6" d="M259,483.82c-6.92-8.46-14.08-16.71-21.73-24.52-6.2-5.1-13-9.75-15.08-18.23,34,0,68,.1,102.06-.1,5.1,0,7.05.94,7,6.62-.28,38.7-.17,77.41-.18,116.11q-19-21-37.91-41.94Q276.07,502.82,259,483.82Z"/><path class="cls-2" d="M255,323.61c-2.43-.12-2.65-2.3-3.4-3.83-13.28-27.11-34.83-43.94-63.86-51.5a13.85,13.85,0,0,1-2.22-1c6.85-8.14,16-13.62,24-20.36,16.58-13.89,33.51-27.37,50.3-41q16.72-13.57,33.47-27.12a6.54,6.54,0,0,1,2.29-.71c-3.93,17.66-9.59,34.83-14.44,52.24Q268.17,277,255,323.61Z"/><path class="cls-2" d="M222.19,441.07c4,6.92,10.6,11.7,15.08,18.23-13.2,8.84-31.86,5.26-41.43-8.1,9.2-3.77,18.25-7.77,26.26-13.72Z"/><path class="cls-2" d="M130.45,308.93c24-14.19,61.3-7.95,77.66,19.34,12.74,21.24,11.83,55.26-7.7,74.85-9.24,9.26-20.62,15-34,16-19.2,1.48-36.34-2.73-50-17.28-19.47-20.71-20.41-59.1-1.86-79.62C120,318.1,125.63,314,130.45,308.93Z"/><path class="cls-7" d="M130.45,308.93c-1,5.76-6.93,6.9-10.34,10.38-1.18,1.21-2.62,4.28-5.63,2.95A43.77,43.77,0,0,1,130.45,308.93Z"/><path class="cls-8" d="M432.54,251.81c-.44,11.8-1.07,23.61-6.06,34.59-5.23,11.5-13.79,18.51-26.88,18.72s-21.86-6.57-27.35-17.95C366.42,275.1,365.83,262,366,249c.12-10.12,1-20.32,4.77-30,8.25-21.35,32-28.34,47.81-13.88,8.1,7.41,11,17.46,12.55,27.83C432,239.16,432.92,245.45,432.54,251.81Z"/><rect class="cls-9" width="610.05" height="610.05"/></g></g></svg>